HIERARCHY
ROOT Pelvis
{
	OFFSET 0.000000 0.000000 0.000000
	CHANNELS 6 Xposition Yposition Zposition Xrotation Yrotation Zrotation
	JOINT LeftUpLeg_virtual
	{
		OFFSET 0.000000 0.000000 0.000000
		CHANNELS 3 Xrotation Yrotation Zrotation
		JOINT LeftUpLeg
		{
			OFFSET 8.479700 -4.795502 -0.379100
			CHANNELS 3 Xrotation Yrotation Zrotation
			JOINT LeftLeg
			{
				OFFSET 0.024144 -32.555107 0.112900
				CHANNELS 3 Xrotation Yrotation Zrotation
				JOINT LeftFoot
				{
					OFFSET -0.024144 -32.638630 -3.012600
					CHANNELS 3 Xrotation Yrotation Zrotation
					JOINT LeftToeBase
					{
						OFFSET 0.970200 -13.225400 11.864200
						CHANNELS 3 Xrotation Yrotation Zrotation
						End Site
						{
							OFFSET 0 0 0
						}
					}
				}
			}
		}
	}
	JOINT RightUpLeg_virtual
	{
		OFFSET 0.000000 0.000000 0.000000
		CHANNELS 3 Xrotation Yrotation Zrotation
		JOINT RightUpLeg
		{
			OFFSET -8.479700 -4.795502 -0.379100
			CHANNELS 3 Xrotation Yrotation Zrotation
			JOINT RightLeg
			{
				OFFSET -0.023144 -32.555092 0.112900
				CHANNELS 3 Xrotation Yrotation Zrotation
				JOINT RightFoot
				{
					OFFSET 0.023144 -32.638641 -3.012700
					CHANNELS 3 Xrotation Yrotation Zrotation
					JOINT RightToeBase
					{
						OFFSET -0.970200 -13.225400 11.864200
						CHANNELS 3 Xrotation Yrotation Zrotation
						End Site
						{
							OFFSET 0 0 0
						}
					}
				}
			}
		}
	}
	JOINT Hips_virtual
	{
		OFFSET 0.000000 0.000000 0.000000
		CHANNELS 3 Xrotation Yrotation Zrotation
		JOINT Hips
		{
			OFFSET -0.000000 -0.000000 -0.000000
			CHANNELS 3 Xrotation Yrotation Zrotation
			JOINT Spine
			{
				OFFSET 0.000000 7.722000 1.166200
				CHANNELS 3 Xrotation Yrotation Zrotation
				JOINT Spine1
				{
					OFFSET 0.000000 12.024101 0.248800
					CHANNELS 3 Xrotation Yrotation Zrotation
					JOINT Spine2
					{
						OFFSET 0.000000 11.502998 -0.491200
						CHANNELS 3 Xrotation Yrotation Zrotation
						JOINT Neck_virtual
						{
							OFFSET 0.000000 0.000000 0.000000
							CHANNELS 3 Xrotation Yrotation Zrotation
							JOINT Neck
							{
								OFFSET 0.000000 18.430702 -3.123100
								CHANNELS 3 Xrotation Yrotation Zrotation
								JOINT Head
								{
									OFFSET 0.000000 9.051102 1.034000
									CHANNELS 3 Xrotation Yrotation Zrotation
									End Site
									{
										OFFSET 0 0 0
									}
								}
							}
						}
						JOINT LeftShoulder_virtual
						{
							OFFSET 0.000000 0.000000 0.000000
							CHANNELS 3 Xrotation Yrotation Zrotation
							JOINT LeftShoulder
							{
								OFFSET 6.197800 13.665199 -4.064700
								CHANNELS 3 Xrotation Yrotation Zrotation
								JOINT LeftArm
								{
									OFFSET 7.778100 -0.187103 -1.709300
									CHANNELS 3 Xrotation Yrotation Zrotation
									JOINT LeftForeArm
									{
										OFFSET 22.049376 0.000000 0.000000
										CHANNELS 3 Xrotation Yrotation Zrotation
										JOINT LeftHand
										{
											OFFSET 23.009392 0.000000 0.000000
											CHANNELS 3 Xrotation Yrotation Zrotation
											End Site
											{
												OFFSET 0 0 0
											}
										}
									}
								}
							}
						}
						JOINT RightShoulder_virtual
						{
							OFFSET 0.000000 0.000000 0.000000
							CHANNELS 3 Xrotation Yrotation Zrotation
							JOINT RightShoulder
							{
								OFFSET -6.197800 13.665199 -4.064700
								CHANNELS 3 Xrotation Yrotation Zrotation
								JOINT RightArm
								{
									OFFSET -7.778100 -0.187103 -1.709300
									CHANNELS 3 Xrotation Yrotation Zrotation
									JOINT RightForeArm
									{
										OFFSET -22.049376 0.000000 0.000000
										CHANNELS 3 Xrotation Yrotation Zrotation
										JOINT RightHand
										{
											OFFSET -23.009392 0.000000 0.000000
											CHANNELS 3 Xrotation Yrotation Zrotation
											End Site
											{
												OFFSET 0 0 0
											}
										}
									}
								}
							}
						}
					}
				}
			}
		}
	}
}
MOTION
Frames: 9
Frame Time: 0.03333333
0.442012 70.359581 3.823172 0.000000 0.000000 0.000000 0.927419 -43.413529 5.508060 -36.769459 12.357459 19.783530 61.457673 -9.777324 -0.924022 -26.191281 -10.373865 -8.491749 0.000000 0.000000 0.000000 0.927419 -43.413529 5.508060 -26.171869 -7.550560 -31.291207 55.894290 -9.144927 -6.465707 -23.734743 -6.606833 24.365517 0.000000 0.000000 0.000000 0.927419 -43.413529 5.508060 0.000000 0.000002 0.000000 9.375100 13.056607 -4.733162 1.751726 3.638386 -1.540309 0.000000 0.000000 0.000000 1.716104 3.636635 -1.514276 -4.807231 12.764787 2.112759 0.000000 0.000000 0.000000 1.716104 3.636635 -1.514276 0.177123 3.280462 -2.501102 0.608045 -3.857606 -44.118859 180.000005 -47.293586 -179.999991 0.000000 0.000000 0.000000 1.716104 3.636635 -1.514276 0.028596 13.490905 -3.638380 -50.086689 20.453920 65.076765 -179.999677 74.209056 179.999663 0.000000 0.000000 0.000000 
0.712929 70.449287 3.880087 0.000000 0.000000 0.000000 1.532931 -47.374926 6.060805 -35.768499 13.269214 20.343203 61.161428 -9.743041 -1.655141 -26.790304 -7.715197 -8.183893 0.000000 0.000000 0.000000 1.532931 -47.374926 6.060805 -28.275494 -6.103517 -30.337436 55.698946 -6.906176 -8.109624 -23.071086 -6.366930 23.740209 0.000000 0.000000 0.000000 1.532931 -47.374926 6.060805 0.000000 -0.000001 0.000000 9.414939 13.353956 -4.802482 1.781054 3.670401 -1.552475 0.000000 0.000000 0.000000 1.745713 3.669429 -1.526468 -4.852180 13.507688 1.989612 0.000000 0.000000 0.000000 1.745713 3.669429 -1.526468 0.097888 3.823973 -2.193748 0.257139 0.811124 -40.840266 180.000005 -46.688127 -179.999991 0.000000 0.000000 0.000000 1.745713 3.669429 -1.526468 0.200215 11.353364 -3.117912 -51.036963 23.059970 69.349014 -179.999991 73.542286 179.999991 0.000000 0.000000 0.000000 
0.959834 70.520142 3.889887 0.000000 0.000000 0.000000 2.382516 -51.353850 6.630870 -34.897106 13.865765 20.895944 60.948005 -9.669138 -2.340055 -27.451307 -4.808973 -7.918378 0.000000 0.000000 0.000000 2.382516 -51.353850 6.630870 -30.567975 -5.083805 -28.909455 55.534465 -4.571614 -10.010085 -22.361537 -6.128304 23.114887 0.000000 0.000000 0.000000 2.382516 -51.353850 6.630870 0.000000 -0.000001 0.000000 9.320158 13.326345 -4.824506 1.771373 3.585717 -1.596583 0.000000 0.000000 0.000000 1.740269 3.584193 -1.570212 -4.939227 14.320788 1.963290 0.000000 0.000000 0.000000 1.740269 3.584193 -1.570212 -0.027861 4.558147 -1.523013 -2.682215 4.894925 -37.047127 179.999978 -48.226419 179.999978 0.000000 0.000000 0.000000 1.740269 3.584193 -1.570212 0.408006 9.523258 -2.592242 -52.008663 26.162961 72.996165 -179.999841 73.076201 179.999855 0.000000 0.000000 0.000000 
1.183410 70.557182 3.835997 0.000000 0.000000 0.000000 3.229352 -54.974383 7.046876 -34.150468 14.059117 21.332426 60.909032 -9.616176 -2.810710 -28.127052 -1.808105 -7.753404 0.000000 0.000000 0.000000 3.229352 -54.974383 7.046876 -32.579944 -3.927398 -28.098179 55.808134 -2.218949 -10.010393 -21.902733 -5.378941 21.777945 0.000000 0.000000 0.000000 3.229352 -54.974383 7.046876 0.000000 0.000003 0.000000 9.204009 12.927322 -4.767515 1.764131 3.368146 -1.656706 0.000000 0.000000 0.000000 1.742110 3.364812 -1.629985 -5.053197 15.121588 2.024823 0.000000 0.000000 0.000000 1.742110 3.364812 -1.629985 -0.179993 5.325321 -0.579759 -7.789441 6.885917 -33.013152 -179.999978 -52.729740 -179.999978 0.000000 0.000000 0.000000 1.742110 3.364812 -1.629985 0.645879 8.044689 -2.081284 -52.775670 29.458531 75.713863 179.999896 72.419294 -179.999909 0.000000 0.000000 0.000000 
1.383470 70.559952 3.719286 0.000000 0.000000 0.000000 3.678951 -57.876687 6.982337 -33.465164 13.762152 21.600531 61.074527 -9.596493 -2.996501 -28.741856 1.034877 -7.719685 0.000000 0.000000 0.000000 3.678951 -57.876687 6.982337 -34.094375 -3.282698 -27.134439 56.064365 -0.345184 -10.010266 -21.485337 -4.723501 20.624485 0.000000 0.000000 0.000000 3.678951 -57.876687 6.982337 0.000000 0.000003 0.000000 9.194826 12.135783 -4.594566 1.811340 3.011561 -1.713780 0.000000 0.000000 0.000000 1.802747 3.005528 -1.686649 -5.238827 15.870231 2.159966 0.000000 0.000000 0.000000 1.802747 3.005528 -1.686649 -0.321635 5.900921 0.463510 -13.722272 6.130289 -29.065600 -179.999991 -60.902878 179.999991 0.000000 0.000000 0.000000 1.802747 3.005528 -1.686649 0.896319 6.912408 -1.617418 -53.134545 32.659256 77.365963 179.999937 71.358716 -179.999964 0.000000 0.000000 0.000000 
1.552104 70.521286 3.546921 0.000000 0.000000 0.000000 3.378392 -59.733071 6.124988 -32.857807 12.990586 21.722950 61.474633 -9.600710 -2.867249 -29.241099 3.377326 -7.804627 0.000000 0.000000 0.000000 3.378392 -59.733071 6.124988 -34.908967 -3.252030 -26.237813 56.341056 0.900217 -10.009774 -21.226906 -4.208779 19.742870 0.000000 0.000000 0.000000 3.378392 -59.733071 6.124988 0.000000 -0.000001 0.000000 9.361473 10.912269 -4.275422 1.947403 2.500742 -1.752770 0.000000 0.000000 0.000000 1.954957 2.491328 -1.724667 -5.559962 16.496964 2.373659 0.000000 0.000000 0.000000 1.954957 2.491328 -1.724667 -0.413427 6.098900 1.409510 -19.127557 3.078822 -25.363928 -179.999950 -72.730504 -179.999950 0.000000 0.000000 0.000000 1.954957 2.491328 -1.724667 1.134239 6.092591 -1.214578 -52.963046 35.555093 78.044515 -179.999827 69.886236 179.999814 0.000000 0.000000 0.000000 
1.677855 70.444450 3.335497 0.000000 0.000000 0.000000 2.299168 -60.288932 4.468760 -32.451759 11.835436 21.689370 62.107511 -9.625895 -2.323405 -29.563255 4.966668 -8.044384 0.000000 0.000000 0.000000 2.299168 -60.288932 4.468760 -34.974011 -3.871064 -25.593694 56.629539 1.377144 -10.008674 -21.204059 -3.823904 19.224973 0.000000 0.000000 0.000000 2.299168 -60.288932 4.468760 0.000000 0.000000 0.000000 9.681921 9.199307 -3.813955 2.171640 1.813802 -1.772807 0.000000 0.000000 0.000000 2.195911 1.800117 -1.742828 -6.154453 17.070231 2.533193 0.000000 0.000000 0.000000 2.195911 1.800117 -1.742828 -0.436133 5.894024 2.096171 -23.367995 -1.632349 -21.813341 -179.999609 -87.292242 -179.999677 0.000000 0.000000 0.000000 2.195911 1.800117 -1.742828 1.333967 5.544081 -0.855445 -52.220235 38.064402 78.000890 -179.999964 68.112730 179.999964 0.000000 0.000000 0.000000 
1.748946 70.339180 3.115263 0.000000 0.000000 0.000000 0.857540 -59.472465 2.442605 -32.391827 10.393884 21.478039 62.918173 -9.639910 -1.373662 -29.676475 5.676901 -8.442038 0.000000 0.000000 0.000000 0.857540 -59.472465 2.442605 -34.399828 -5.087995 -25.275021 56.914324 1.270459 -10.006773 -21.426951 -3.769544 19.036618 0.000000 0.000000 0.000000 0.857540 -59.472465 2.442605 0.000000 -0.000001 0.000000 10.055183 7.009792 -3.255059 2.441092 0.957137 -1.783376 0.000000 0.000000 0.000000 2.479789 0.937992 -1.751809 -6.876897 17.554563 2.844259 0.000000 0.000000 0.000000 2.479789 0.937992 -1.751809 -0.408904 5.482848 2.468310 -26.135920 -7.509522 -18.397041 -0.000004 -77.254897 0.000004 0.000000 0.000000 0.000000 2.479789 0.937992 -1.751809 1.474613 5.237594 -0.499381 -50.849457 40.216519 77.450568 -179.999964 66.153913 179.999964 0.000000 0.000000 0.000000 
1.753508 70.219025 2.927214 0.000000 0.000000 0.000000 -0.363427 -57.500426 0.637627 -32.752311 8.783488 21.097923 63.792867 -9.063109 -0.112522 -29.569368 5.109814 -9.272836 0.000000 0.000000 0.000000 -0.363427 -57.500426 0.637627 -33.418080 -6.753618 -25.254452 57.099043 0.549883 -10.004482 -21.827565 -3.882035 19.233654 0.000000 0.000000 0.000000 -0.363427 -57.500426 0.637627 0.000000 0.000000 0.000000 10.344183 4.539234 -2.680551 2.681244 0.010311 -1.791739 0.000000 0.000000 0.000000 2.729208 -0.015043 -1.761256 -7.580921 17.892647 3.253838 0.000000 0.000000 0.000000 2.729208 -0.015043 -1.761256 -0.382468 5.196446 2.627885 -27.583767 -13.678246 -15.661636 0.000008 -63.556263 0.000009 0.000000 0.000000 0.000000 2.729208 -0.015043 -1.761256 1.544396 5.187241 -0.105187 -48.645307 42.029576 76.361693 -179.999991 64.061000 179.999991 0.000000 0.000000 0.000000 
